<?xml version="1.0" encoding="UTF-8" standalone="no"?>
<!DOCTYPE svg PUBLIC "-//W3C//DTD SVG 1.1//EN"
 "http://www.w3.org/Graphics/SVG/1.1/DTD/svg11.dtd">
<!-- Generated by graphviz version 12.1.1 (0)
 -->
<!-- Title: G Pages: 1 -->
<svg width="1501pt" height="1457pt"
 viewBox="0.00 0.00 1500.50 1456.77" xmlns="http://www.w3.org/2000/svg" xmlns:xlink="http://www.w3.org/1999/xlink">
<g id="graph0" class="graph" transform="scale(1 1) rotate(0) translate(4 1452.77)">
<title>G</title>
<polygon fill="white" stroke="none" points="-4,4 -4,-1452.77 1496.5,-1452.77 1496.5,4 -4,4"/>
<!-- s -->
<g id="node1" class="node">
<title>s</title>
<ellipse fill="black" stroke="black" cx="66.5" cy="-445.02" rx="18" ry="18"/>
<text text-anchor="middle" x="66.5" y="-439.59" font-family="Arial" font-size="14.00">s</text>
</g>
<!-- Init -->
<g id="node2" class="node">
<title>Init</title>
<polygon fill="#ffbb33" stroke="red" points="224,-463.02 170,-463.02 170,-427.02 224,-427.02 224,-463.02"/>
<text text-anchor="middle" x="197" y="-439.59" font-family="Arial" font-size="14.00">Init</text>
</g>
<!-- s&#45;&gt;Init -->
<g id="edge1" class="edge">
<title>s&#45;&gt;Init</title>
<path fill="none" stroke="black" d="M84.83,-445.02C103.55,-445.02 133.96,-445.02 158.24,-445.02"/>
<polygon fill="black" stroke="black" points="158.08,-448.52 168.08,-445.02 158.08,-441.52 158.08,-448.52"/>
</g>
<!-- Emergency -->
<g id="node4" class="node">
<title>Emergency</title>
<polygon fill="#ffbb33" stroke="red" points="434.25,-424.02 349.25,-424.02 349.25,-388.02 434.25,-388.02 434.25,-424.02"/>
<text text-anchor="middle" x="391.75" y="-400.59" font-family="Arial" font-size="14.00">Emergency</text>
</g>
<!-- Init&#45;&gt;Emergency -->
<g id="edge13" class="edge">
<title>Init&#45;&gt;Emergency</title>
<path fill="none" stroke="blue" d="M224.47,-441.56C251.48,-437.82 294.53,-431.27 331.25,-423.02 333.41,-422.53 335.61,-422.01 337.83,-421.47"/>
<polygon fill="blue" stroke="blue" points="338.69,-424.86 347.51,-418.98 336.95,-418.09 338.69,-424.86"/>
<text text-anchor="middle" x="286.62" y="-441.4" font-family="Arial" font-size="14.00">EmergencyOn</text>
</g>
<!-- Init&#45;&gt;Emergency -->
<g id="edge14" class="edge">
<title>Init&#45;&gt;Emergency</title>
<path fill="none" stroke="blue" d="M211.74,-426.59C219.52,-417.73 230.07,-408.03 242,-403.27 272.07,-391.27 308.36,-391.68 337.57,-395.23"/>
<polygon fill="blue" stroke="blue" points="336.91,-398.67 347.3,-396.57 337.87,-391.74 336.91,-398.67"/>
<text text-anchor="middle" x="286.62" y="-405.72" font-family="Arial" font-size="14.00">SetEmergency</text>
</g>
<!-- Stopped -->
<g id="node9" class="node">
<title>Stopped</title>
<polygon fill="#ffbb33" stroke="red" points="851.75,-495.02 785.5,-495.02 785.5,-459.02 851.75,-459.02 851.75,-495.02"/>
<text text-anchor="middle" x="818.62" y="-471.59" font-family="Arial" font-size="14.00">Stopped</text>
</g>
<!-- Init&#45;&gt;Stopped -->
<g id="edge15" class="edge">
<title>Init&#45;&gt;Stopped</title>
<path fill="none" stroke="blue" d="M203.29,-463.23C223.14,-527.67 299.86,-745.39 452.25,-827.02 539.16,-873.58 745.07,-769.08 756,-757.02 789.35,-720.19 808.16,-570.53 814.83,-506.41"/>
<polygon fill="blue" stroke="blue" points="818.29,-506.94 815.82,-496.63 811.33,-506.23 818.29,-506.94"/>
<text text-anchor="middle" x="496.88" y="-841.34" font-family="Arial" font-size="14.00">SetStopped</text>
</g>
<!-- Cleaning -->
<g id="node3" class="node">
<title>Cleaning</title>
<polygon fill="#ffbb33" stroke="red" points="1097.88,-397.02 1028.62,-397.02 1028.62,-361.02 1097.88,-361.02 1097.88,-397.02"/>
<text text-anchor="middle" x="1063.25" y="-373.59" font-family="Arial" font-size="14.00">Cleaning</text>
</g>
<!-- Cleaning&#45;&gt;Emergency -->
<g id="edge2" class="edge">
<title>Cleaning&#45;&gt;Emergency</title>
<path fill="none" stroke="blue" d="M1056.39,-360.68C1047.77,-336.98 1029.24,-296.46 998.25,-277.02 935.64,-237.75 740.54,-246.19 666.75,-250.27 570.98,-255.55 529.82,-217.6 452.25,-274.02 418.72,-298.4 403.7,-346.16 397.25,-377.05"/>
<polygon fill="blue" stroke="blue" points="393.89,-376.01 395.46,-386.49 400.76,-377.31 393.89,-376.01"/>
<text text-anchor="middle" x="711.38" y="-252.72" font-family="Arial" font-size="14.00">EmergencyOn</text>
</g>
<!-- Cleaning&#45;&gt;Emergency -->
<g id="edge3" class="edge">
<title>Cleaning&#45;&gt;Emergency</title>
<path fill="none" stroke="blue" d="M1053.2,-360.68C1042.83,-341.98 1023.9,-314.05 998.25,-302.02 909.95,-260.59 656.66,-304.53 559.5,-313.02 511.77,-317.19 493.77,-300.1 452.25,-324.02 431.13,-336.18 415.44,-359.21 405.49,-377.77"/>
<polygon fill="blue" stroke="blue" points="402.49,-375.94 401.11,-386.44 408.74,-379.09 402.49,-375.94"/>
<text text-anchor="middle" x="711.38" y="-302.83" font-family="Arial" font-size="14.00">SetEmergency</text>
</g>
<!-- Cleaning&#45;&gt;Stopped -->
<g id="edge4" class="edge">
<title>Cleaning&#45;&gt;Stopped</title>
<path fill="none" stroke="blue" d="M1028.22,-364.23C989.71,-349.95 926.45,-334.12 881.25,-361.27 850.17,-379.93 833.91,-420.17 826.06,-447.91"/>
<polygon fill="blue" stroke="blue" points="822.7,-446.92 823.57,-457.48 829.48,-448.68 822.7,-446.92"/>
<text text-anchor="middle" x="939.75" y="-363.72" font-family="Arial" font-size="14.00">CleaningButton</text>
</g>
<!-- Cleaning&#45;&gt;Stopped -->
<g id="edge5" class="edge">
<title>Cleaning&#45;&gt;Stopped</title>
<path fill="none" stroke="blue" d="M1052.24,-397.52C1041.45,-415.47 1022.51,-441.87 998.25,-455.02 975.7,-467.24 908.58,-472.84 863.35,-475.28"/>
<polygon fill="blue" stroke="blue" points="863.41,-471.77 853.6,-475.77 863.76,-478.76 863.41,-471.77"/>
<text text-anchor="middle" x="939.75" y="-476.64" font-family="Arial" font-size="14.00">SetStopped</text>
</g>
<!-- Emergency&#45;&gt;Emergency -->
<g id="edge6" class="edge">
<title>Emergency&#45;&gt;Emergency</title>
<path fill="none" stroke="blue" d="M382.24,-424.17C380.78,-433.56 383.95,-442.02 391.75,-442.02 396.14,-442.02 399.06,-439.34 400.52,-435.33"/>
<polygon fill="blue" stroke="blue" points="403.99,-435.89 401.16,-425.68 397,-435.43 403.99,-435.89"/>
<text text-anchor="middle" x="391.75" y="-444.47" font-family="Arial" font-size="14.00">EmergencyOn</text>
</g>
<!-- Emergency&#45;&gt;Emergency -->
<g id="edge7" class="edge">
<title>Emergency&#45;&gt;Emergency</title>
<path fill="none" stroke="blue" d="M375.81,-424.28C367.55,-441.42 372.86,-460.02 391.75,-460.02 406.66,-460.02 413.11,-448.44 411.11,-435.13"/>
<polygon fill="blue" stroke="blue" points="414.48,-434.21 408.14,-425.72 407.81,-436.31 414.48,-434.21"/>
<text text-anchor="middle" x="391.75" y="-462.47" font-family="Arial" font-size="14.00">SetEmergency</text>
</g>
<!-- Fault -->
<g id="node5" class="node">
<title>Fault</title>
<polygon fill="#ffbb33" stroke="red" points="631.12,-414.02 577.12,-414.02 577.12,-378.02 631.12,-378.02 631.12,-414.02"/>
<text text-anchor="middle" x="604.12" y="-390.59" font-family="Arial" font-size="14.00">Fault</text>
</g>
<!-- Emergency&#45;&gt;Fault -->
<g id="edge8" class="edge">
<title>Emergency&#45;&gt;Fault</title>
<path fill="none" stroke="blue" d="M415,-387.65C425.59,-380.07 438.86,-372.16 452.25,-368.27 490.34,-357.2 502.72,-359.94 541.5,-368.27 549.78,-370.05 558.29,-373.03 566.24,-376.39"/>
<polygon fill="blue" stroke="blue" points="564.74,-379.55 575.29,-380.52 567.64,-373.18 564.74,-379.55"/>
<text text-anchor="middle" x="496.88" y="-370.72" font-family="Arial" font-size="14.00">EmergencyOff</text>
</g>
<!-- Emergency&#45;&gt;Stopped -->
<g id="edge9" class="edge">
<title>Emergency&#45;&gt;Stopped</title>
<path fill="none" stroke="blue" d="M413.62,-424.44C424.43,-432.98 438.27,-442.45 452.25,-448.02 561.58,-491.57 703.65,-487.33 774.08,-481.62"/>
<polygon fill="blue" stroke="blue" points="773.99,-485.14 783.66,-480.79 773.39,-478.17 773.99,-485.14"/>
<text text-anchor="middle" x="604.12" y="-486.72" font-family="Arial" font-size="14.00">EmergencyOff</text>
</g>
<!-- Fault&#45;&gt;Emergency -->
<g id="edge10" class="edge">
<title>Fault&#45;&gt;Emergency</title>
<path fill="none" stroke="blue" d="M576.63,-410.49C566.03,-415.51 553.5,-420.5 541.5,-423.02 502.68,-431.15 491.53,-428.52 452.25,-423.02 450.1,-422.72 447.91,-422.36 445.71,-421.95"/>
<polygon fill="blue" stroke="blue" points="446.69,-418.58 436.17,-419.88 445.21,-425.42 446.69,-418.58"/>
<text text-anchor="middle" x="496.88" y="-430.63" font-family="Arial" font-size="14.00">EmergencyOn</text>
</g>
<!-- Fault&#45;&gt;Emergency -->
<g id="edge11" class="edge">
<title>Fault&#45;&gt;Emergency</title>
<path fill="none" stroke="blue" d="M576.69,-397.27C544.03,-398.83 487.67,-401.51 445.92,-403.49"/>
<polygon fill="blue" stroke="blue" points="445.9,-399.99 436.08,-403.96 446.23,-406.98 445.9,-399.99"/>
<text text-anchor="middle" x="496.88" y="-405.51" font-family="Arial" font-size="14.00">SetEmergency</text>
</g>
<!-- Fault&#45;&gt;Stopped -->
<g id="edge12" class="edge">
<title>Fault&#45;&gt;Stopped</title>
<path fill="none" stroke="blue" d="M631.43,-386.08C663,-375.9 716.6,-364.27 756,-385.27 780.8,-398.49 797.4,-426.61 807.06,-448.26"/>
<polygon fill="blue" stroke="blue" points="803.82,-449.6 810.9,-457.48 810.28,-446.91 803.82,-449.6"/>
<text text-anchor="middle" x="711.38" y="-387.72" font-family="Arial" font-size="14.00">FaultOff</text>
</g>
<!-- Maintenance -->
<g id="node6" class="node">
<title>Maintenance</title>
<polygon fill="#ffbb33" stroke="red" points="1110.25,-681.02 1016.25,-681.02 1016.25,-645.02 1110.25,-645.02 1110.25,-681.02"/>
<text text-anchor="middle" x="1063.25" y="-657.59" font-family="Arial" font-size="14.00">Maintenance</text>
</g>
<!-- Maintenance&#45;&gt;Emergency -->
<g id="edge16" class="edge">
<title>Maintenance&#45;&gt;Emergency</title>
<path fill="none" stroke="blue" d="M1049.71,-681.33C1038.28,-696.25 1019.9,-716.25 998.25,-725.02 942,-747.79 498.49,-751.32 452.25,-712.02 410.43,-676.47 397.53,-505.17 393.97,-435.54"/>
<polygon fill="blue" stroke="blue" points="397.47,-435.48 393.5,-425.66 390.48,-435.82 397.47,-435.48"/>
<text text-anchor="middle" x="711.38" y="-744.38" font-family="Arial" font-size="14.00">EmergencyOn</text>
</g>
<!-- Maintenance&#45;&gt;Emergency -->
<g id="edge17" class="edge">
<title>Maintenance&#45;&gt;Emergency</title>
<path fill="none" stroke="blue" d="M1037.46,-681.43C1026.12,-688.75 1012.13,-696.29 998.25,-700.02 948.03,-713.49 932.04,-711.17 881.25,-700.02 676.14,-654.97 609.55,-641.14 452.25,-502.02 431.24,-483.43 415.13,-455.64 405,-434.73"/>
<polygon fill="blue" stroke="blue" points="408.28,-433.48 400.9,-425.89 401.93,-436.43 408.28,-433.48"/>
<text text-anchor="middle" x="711.38" y="-673.44" font-family="Arial" font-size="14.00">SetEmergency</text>
</g>
<!-- Maintenance&#45;&gt;Stopped -->
<g id="edge18" class="edge">
<title>Maintenance&#45;&gt;Stopped</title>
<path fill="none" stroke="blue" d="M1016.02,-676.22C976.43,-684.57 919.87,-689.13 881.25,-661.02 832.29,-625.37 821.71,-549.07 819.74,-506.77"/>
<polygon fill="blue" stroke="blue" points="823.24,-506.71 819.43,-496.83 816.24,-506.93 823.24,-506.71"/>
<text text-anchor="middle" x="939.75" y="-685.04" font-family="Arial" font-size="14.00">MaintenanceButton</text>
</g>
<!-- Maintenance&#45;&gt;Stopped -->
<g id="edge19" class="edge">
<title>Maintenance&#45;&gt;Stopped</title>
<path fill="none" stroke="blue" d="M1016.03,-646.31C1010.09,-644.46 1004.06,-642.72 998.25,-641.27 947.13,-628.47 922.69,-654.58 881.25,-622.02 845.05,-593.57 829.81,-539.84 823.62,-506.38"/>
<polygon fill="blue" stroke="blue" points="827.08,-505.83 821.98,-496.54 820.17,-506.98 827.08,-505.83"/>
<text text-anchor="middle" x="939.75" y="-643.72" font-family="Arial" font-size="14.00">SetStopped</text>
</g>
<!-- Running -->
<g id="node7" class="node">
<title>Running</title>
<polygon fill="#ffbb33" stroke="red" points="1316.75,-196.02 1250.5,-196.02 1250.5,-160.02 1316.75,-160.02 1316.75,-196.02"/>
<text text-anchor="middle" x="1283.62" y="-172.59" font-family="Arial" font-size="14.00">Running</text>
</g>
<!-- Running&#45;&gt;Emergency -->
<g id="edge20" class="edge">
<title>Running&#45;&gt;Emergency</title>
<path fill="none" stroke="blue" d="M1273.5,-159.71C1264.9,-144.18 1250.62,-122.36 1232.5,-109.02 1168.92,-62.21 1143.2,-52.02 1064.25,-52.02 603.12,-52.02 603.12,-52.02 603.12,-52.02 526.38,-52.02 498.07,-74.45 452.25,-136.02 423.9,-174.1 403.84,-314.54 396.18,-376.41"/>
<polygon fill="blue" stroke="blue" points="392.73,-375.84 395,-386.19 399.67,-376.68 392.73,-375.84"/>
<text text-anchor="middle" x="818.62" y="-54.47" font-family="Arial" font-size="14.00">EmergencyOn</text>
</g>
<!-- Running&#45;&gt;Emergency -->
<g id="edge21" class="edge">
<title>Running&#45;&gt;Emergency</title>
<path fill="none" stroke="blue" d="M1280.23,-159.52C1275.75,-132.36 1263.54,-81.78 1232.5,-53.02 1174.99,0.27 1142.65,-0.02 1064.25,-0.02 603.12,-0.02 603.12,-0.02 603.12,-0.02 531.6,-0.02 497.88,-0.94 452.25,-56.02 411.83,-104.8 397.96,-300.9 394.06,-376.29"/>
<polygon fill="blue" stroke="blue" points="390.57,-376.04 393.58,-386.2 397.56,-376.38 390.57,-376.04"/>
<text text-anchor="middle" x="818.62" y="-2.47" font-family="Arial" font-size="14.00">SetEmergency</text>
</g>
<!-- Running&#45;&gt;Fault -->
<g id="edge22" class="edge">
<title>Running&#45;&gt;Fault</title>
<path fill="none" stroke="blue" d="M1255.82,-196.49C1248.55,-200.66 1240.48,-204.57 1232.5,-207.02 1082.89,-252.99 1028.73,-179.86 881.25,-232.27 817.2,-255.03 814.34,-285.14 756,-320.02 718.17,-342.64 672.76,-364.89 641.71,-379.41"/>
<polygon fill="blue" stroke="blue" points="640.33,-376.19 632.73,-383.58 643.28,-382.54 640.33,-376.19"/>
<text text-anchor="middle" x="939.75" y="-234.72" font-family="Arial" font-size="14.00">FaultOn</text>
</g>
<!-- Running&#45;&gt;Fault -->
<g id="edge23" class="edge">
<title>Running&#45;&gt;Fault</title>
<path fill="none" stroke="blue" d="M1250.02,-178.81C1160.86,-181.01 917.27,-187.42 881.25,-192.27 784.16,-205.35 734.18,-171.95 666.75,-243.02 635.97,-275.46 667.38,-301.36 648.75,-342.02 644.37,-351.57 637.92,-360.88 631.31,-369"/>
<polygon fill="blue" stroke="blue" points="628.74,-366.62 624.87,-376.48 634.05,-371.19 628.74,-366.62"/>
<text text-anchor="middle" x="939.75" y="-194.72" font-family="Arial" font-size="14.00">SetFault</text>
</g>
<!-- Stopping -->
<g id="node10" class="node">
<title>Stopping</title>
<polygon fill="#ffbb33" stroke="red" points="1492.5,-538.02 1423.25,-538.02 1423.25,-502.02 1492.5,-502.02 1492.5,-538.02"/>
<text text-anchor="middle" x="1457.88" y="-514.59" font-family="Arial" font-size="14.00">Stopping</text>
</g>
<!-- Running&#45;&gt;Stopping -->
<g id="edge24" class="edge">
<title>Running&#45;&gt;Stopping</title>
<path fill="none" stroke="blue" d="M1293.89,-196.41C1322.28,-252.77 1408.23,-423.44 1442.52,-491.53"/>
<polygon fill="blue" stroke="blue" points="1439.26,-492.83 1446.89,-500.19 1445.52,-489.68 1439.26,-492.83"/>
<text text-anchor="middle" x="1370" y="-411.85" font-family="Arial" font-size="14.00">RunButton</text>
</g>
<!-- Running&#45;&gt;Stopping -->
<g id="edge25" class="edge">
<title>Running&#45;&gt;Stopping</title>
<path fill="none" stroke="blue" d="M1317.11,-191.27C1344.95,-204.36 1383.86,-227.1 1405.25,-259.27 1430.35,-297.02 1447.33,-430.4 1453.87,-490.4"/>
<polygon fill="blue" stroke="blue" points="1450.37,-490.62 1454.91,-500.19 1457.33,-489.88 1450.37,-490.62"/>
<text text-anchor="middle" x="1370" y="-261.72" font-family="Arial" font-size="14.00">SetStopped</text>
</g>
<!-- Starting -->
<g id="node8" class="node">
<title>Starting</title>
<polygon fill="#ffbb33" stroke="red" points="1094.5,-153.02 1032,-153.02 1032,-117.02 1094.5,-117.02 1094.5,-153.02"/>
<text text-anchor="middle" x="1063.25" y="-129.59" font-family="Arial" font-size="14.00">Starting</text>
</g>
<!-- Starting&#45;&gt;Emergency -->
<g id="edge26" class="edge">
<title>Starting&#45;&gt;Emergency</title>
<path fill="none" stroke="blue" d="M1031.56,-129.73C932.75,-114.6 619.58,-81.75 452.25,-239.02 413.29,-275.63 399.81,-339.44 395.17,-376.69"/>
<polygon fill="blue" stroke="blue" points="391.73,-375.95 394.11,-386.28 398.68,-376.72 391.73,-375.95"/>
<text text-anchor="middle" x="711.38" y="-135.94" font-family="Arial" font-size="14.00">EmergencyOn</text>
</g>
<!-- Starting&#45;&gt;Emergency -->
<g id="edge27" class="edge">
<title>Starting&#45;&gt;Emergency</title>
<path fill="none" stroke="blue" d="M1031.8,-122.59C1021.34,-118.85 1009.44,-115.17 998.25,-113.02 936.39,-101.14 737.34,-90.42 666.75,-101.27 617.36,-108.86 606.83,-118.98 559.5,-135.02 511.46,-151.3 486.32,-136.44 452.25,-174.02 400.24,-231.38 392.41,-328.05 392.01,-376.49"/>
<polygon fill="blue" stroke="blue" points="388.51,-376.21 392.04,-386.2 395.51,-376.19 388.51,-376.21"/>
<text text-anchor="middle" x="711.38" y="-103.72" font-family="Arial" font-size="14.00">SetEmergency</text>
</g>
<!-- Starting&#45;&gt;Running -->
<g id="edge28" class="edge">
<title>Starting&#45;&gt;Running</title>
<path fill="none" stroke="blue" d="M1094.86,-139.03C1128.75,-143.74 1184.87,-152.3 1232.5,-163.27 1234.65,-163.76 1236.85,-164.3 1239.07,-164.86"/>
<polygon fill="blue" stroke="blue" points="1238.12,-168.23 1248.69,-167.45 1239.94,-161.47 1238.12,-168.23"/>
<text text-anchor="middle" x="1180.38" y="-165.72" font-family="Arial" font-size="14.00">StartingFinished</text>
</g>
<!-- Starting&#45;&gt;Running -->
<g id="edge29" class="edge">
<title>Starting&#45;&gt;Running</title>
<path fill="none" stroke="blue" d="M1094.86,-124.96C1129.73,-115.29 1187.67,-104.78 1232.5,-124.27 1245.26,-129.82 1256.25,-140.39 1264.65,-150.7"/>
<polygon fill="blue" stroke="blue" points="1261.62,-152.5 1270.44,-158.36 1267.2,-148.27 1261.62,-152.5"/>
<text text-anchor="middle" x="1180.38" y="-126.72" font-family="Arial" font-size="14.00">StartingTimeout</text>
</g>
<!-- Stopped&#45;&gt;Cleaning -->
<g id="edge30" class="edge">
<title>Stopped&#45;&gt;Cleaning</title>
<path fill="none" stroke="blue" d="M841.69,-458.62C852.88,-450.22 867.08,-440.91 881.25,-435.27 930.2,-415.76 948.63,-433.77 998.25,-416.02 1007.54,-412.69 1017.03,-408.03 1025.75,-403.12"/>
<polygon fill="blue" stroke="blue" points="1027.44,-406.19 1034.28,-398.1 1023.89,-400.16 1027.44,-406.19"/>
<text text-anchor="middle" x="939.75" y="-437.72" font-family="Arial" font-size="14.00">CleaningButton</text>
</g>
<!-- Stopped&#45;&gt;Cleaning -->
<g id="edge31" class="edge">
<title>Stopped&#45;&gt;Cleaning</title>
<path fill="none" stroke="blue" d="M827.98,-458.67C837.79,-439.5 855.97,-410.31 881.25,-396.27 903.72,-383.79 970.83,-380.21 1016.7,-379.25"/>
<polygon fill="blue" stroke="blue" points="1016.7,-382.75 1026.64,-379.08 1016.58,-375.75 1016.7,-382.75"/>
<text text-anchor="middle" x="939.75" y="-398.72" font-family="Arial" font-size="14.00">SetCleaning</text>
</g>
<!-- Stopped&#45;&gt;Emergency -->
<g id="edge32" class="edge">
<title>Stopped&#45;&gt;Emergency</title>
<path fill="none" stroke="blue" d="M812.58,-458.87C804.77,-434.42 787.28,-391.49 756,-370.02 644.6,-293.54 578.62,-309.17 452.25,-357.02 439.28,-361.93 427.06,-370.89 417.11,-379.83"/>
<polygon fill="blue" stroke="blue" points="414.91,-377.09 410.08,-386.52 419.73,-382.16 414.91,-377.09"/>
<text text-anchor="middle" x="604.12" y="-324.58" font-family="Arial" font-size="14.00">EmergencyOn</text>
</g>
<!-- Stopped&#45;&gt;Emergency -->
<g id="edge33" class="edge">
<title>Stopped&#45;&gt;Emergency</title>
<path fill="none" stroke="blue" d="M785.13,-489.93C775.86,-493.11 765.65,-496.14 756,-498.02 670.23,-514.7 646.06,-515.9 559.5,-504.02 510.46,-497.29 494.12,-500.41 452.25,-474.02 435.86,-463.69 421.44,-447.5 410.9,-433.51"/>
<polygon fill="blue" stroke="blue" points="413.81,-431.57 405.13,-425.5 408.13,-435.66 413.81,-431.57"/>
<text text-anchor="middle" x="604.12" y="-514.35" font-family="Arial" font-size="14.00">SetEmergency</text>
</g>
<!-- Stopped&#45;&gt;Fault -->
<g id="edge34" class="edge">
<title>Stopped&#45;&gt;Fault</title>
<path fill="none" stroke="blue" d="M785.09,-469.73C744.04,-460.42 677.47,-444.94 666.75,-440.02 656,-435.08 645.19,-428.18 635.69,-421.3"/>
<polygon fill="blue" stroke="blue" points="637.98,-418.65 627.89,-415.42 633.77,-424.23 637.98,-418.65"/>
<text text-anchor="middle" x="711.38" y="-464.67" font-family="Arial" font-size="14.00">FaultOn</text>
</g>
<!-- Stopped&#45;&gt;Fault -->
<g id="edge35" class="edge">
<title>Stopped&#45;&gt;Fault</title>
<path fill="none" stroke="blue" d="M802.9,-458.64C791.51,-445.76 774.58,-429.28 756,-420.27 736.53,-410.82 680.61,-403.57 642.6,-399.55"/>
<polygon fill="blue" stroke="blue" points="643.25,-396.1 632.95,-398.56 642.54,-403.06 643.25,-396.1"/>
<text text-anchor="middle" x="711.38" y="-422.72" font-family="Arial" font-size="14.00">SetFault</text>
</g>
<!-- Stopped&#45;&gt;Maintenance -->
<g id="edge36" class="edge">
<title>Stopped&#45;&gt;Maintenance</title>
<path fill="none" stroke="blue" d="M824.88,-495.37C832.85,-519.62 850.41,-561.75 881.25,-583.02 924.64,-612.93 951.06,-578.82 998.25,-602.27 1014.37,-610.28 1029.17,-623.73 1040.47,-635.94"/>
<polygon fill="blue" stroke="blue" points="1037.8,-638.21 1047.05,-643.39 1043.05,-633.58 1037.8,-638.21"/>
<text text-anchor="middle" x="939.75" y="-604.72" font-family="Arial" font-size="14.00">MaintenanceButton</text>
</g>
<!-- Stopped&#45;&gt;Maintenance -->
<g id="edge37" class="edge">
<title>Stopped&#45;&gt;Maintenance</title>
<path fill="none" stroke="blue" d="M831.19,-495.25C842.12,-510.84 859.97,-532.53 881.25,-544.02 927.62,-569.06 954.22,-534.31 998.25,-563.27 1023.81,-580.08 1041.27,-611 1051.41,-633.98"/>
<polygon fill="blue" stroke="blue" points="1048.15,-635.25 1055.23,-643.13 1054.61,-632.55 1048.15,-635.25"/>
<text text-anchor="middle" x="939.75" y="-565.72" font-family="Arial" font-size="14.00">SetMaintenance</text>
</g>
<!-- Stopped&#45;&gt;Starting -->
<g id="edge38" class="edge">
<title>Stopped&#45;&gt;Starting</title>
<path fill="none" stroke="blue" d="M823.25,-458.9C830.08,-428.57 847.32,-366.82 881.25,-326.27 920.77,-279.03 956.14,-296.96 998.25,-252.02 1022.52,-226.12 1040.68,-189.28 1051.33,-163.89"/>
<polygon fill="blue" stroke="blue" points="1054.49,-165.43 1055,-154.85 1048,-162.8 1054.49,-165.43"/>
<text text-anchor="middle" x="939.75" y="-328.72" font-family="Arial" font-size="14.00">RunButton</text>
</g>
<!-- Stopped&#45;&gt;Starting -->
<g id="edge39" class="edge">
<title>Stopped&#45;&gt;Starting</title>
<path fill="none" stroke="blue" d="M820.39,-458.53C823.35,-396.43 836.26,-196.88 881.25,-155.27 900.83,-137.16 973.21,-134.12 1020.29,-134.16"/>
<polygon fill="blue" stroke="blue" points="1020.14,-137.66 1030.16,-134.22 1020.18,-130.66 1020.14,-137.66"/>
<text text-anchor="middle" x="939.75" y="-157.72" font-family="Arial" font-size="14.00">SetStarting</text>
</g>
<!-- Stopping&#45;&gt;Emergency -->
<g id="edge40" class="edge">
<title>Stopping&#45;&gt;Emergency</title>
<path fill="none" stroke="blue" d="M1455.93,-538.26C1452.72,-592.69 1440.43,-752.34 1405.25,-788.02 1366.81,-827 1339.38,-813.02 1284.62,-813.02 603.12,-813.02 603.12,-813.02 603.12,-813.02 535.23,-813.02 500.17,-837.12 452.25,-789.02 427.24,-763.92 403.1,-520.82 395.34,-435.46"/>
<polygon fill="blue" stroke="blue" points="398.83,-435.21 394.45,-425.57 391.86,-435.84 398.83,-435.21"/>
<text text-anchor="middle" x="939.75" y="-815.47" font-family="Arial" font-size="14.00">EmergencyOn</text>
</g>
<!-- Stopping&#45;&gt;Emergency -->
<g id="edge41" class="edge">
<title>Stopping&#45;&gt;Emergency</title>
<path fill="none" stroke="blue" d="M1429.44,-538.39C1360.53,-583.44 1173.14,-699.08 998.25,-746.02 809.9,-796.57 753.21,-774.57 559.5,-752.02 511.63,-746.44 486.84,-769.58 452.25,-736.02 409.5,-694.55 397.08,-508.56 393.81,-435.56"/>
<polygon fill="blue" stroke="blue" points="397.33,-435.82 393.41,-425.98 390.33,-436.11 397.33,-435.82"/>
<text text-anchor="middle" x="939.75" y="-773.21" font-family="Arial" font-size="14.00">SetEmergency</text>
</g>
<!-- Stopping&#45;&gt;Stopped -->
<g id="edge42" class="edge">
<title>Stopping&#45;&gt;Stopped</title>
<path fill="none" stroke="blue" d="M1423.08,-516.76C1379.2,-512.66 1300.21,-505.74 1232.5,-502.27 1076.55,-494.27 1035.74,-516.79 881.25,-494.02 875.28,-493.14 869.07,-491.86 862.98,-490.41"/>
<polygon fill="blue" stroke="blue" points="864.27,-487.12 853.71,-488 862.51,-493.9 864.27,-487.12"/>
<text text-anchor="middle" x="1180.38" y="-504.72" font-family="Arial" font-size="14.00">StoppingFinished</text>
</g>
<!-- Stopping&#45;&gt;Stopped -->
<g id="edge43" class="edge">
<title>Stopping&#45;&gt;Stopped</title>
<path fill="none" stroke="blue" d="M1422.77,-524.55C1416.93,-525.16 1410.92,-525.69 1405.25,-526.02 1373.97,-527.83 1366.08,-526.46 1334.75,-526.02 1078.85,-522.4 888.89,-515.21 881.25,-513.02 872.1,-510.4 862.9,-506.11 854.5,-501.39"/>
<polygon fill="blue" stroke="blue" points="856.37,-498.43 846,-496.28 852.77,-504.43 856.37,-498.43"/>
<text text-anchor="middle" x="1180.38" y="-526.68" font-family="Arial" font-size="14.00">StoppingTimeout</text>
</g>
<!-- CleaningButton -->
<g id="node11" class="node">
<title>CleaningButton</title>
<polygon fill="none" stroke="black" points="120.62,-520.77 12.38,-520.77 12.38,-481.27 120.62,-481.27 120.62,-520.77"/>
<text text-anchor="middle" x="66.5" y="-503.47" font-family="Arial" font-size="14.00">CleaningButton</text>
<text text-anchor="middle" x="66.5" y="-487.72" font-family="Arial" font-size="14.00">[_] / _</text>
</g>
<!-- EmergencyOff -->
<g id="node12" class="node">
<title>EmergencyOff</title>
<polygon fill="none" stroke="black" points="118.38,-578.77 14.62,-578.77 14.62,-539.27 118.38,-539.27 118.38,-578.77"/>
<text text-anchor="middle" x="66.5" y="-561.47" font-family="Arial" font-size="14.00">EmergencyOff</text>
<text text-anchor="middle" x="66.5" y="-545.72" font-family="Arial" font-size="14.00">[is_fault()] / _</text>
</g>
<!-- EmergencyOn -->
<g id="node13" class="node">
<title>EmergencyOn</title>
<polygon fill="none" stroke="black" points="118.38,-636.77 14.62,-636.77 14.62,-597.27 118.38,-597.27 118.38,-636.77"/>
<text text-anchor="middle" x="66.5" y="-619.47" font-family="Arial" font-size="14.00">EmergencyOn</text>
<text text-anchor="middle" x="66.5" y="-603.72" font-family="Arial" font-size="14.00">[_] / _</text>
</g>
<!-- FaultOff -->
<g id="node14" class="node">
<title>FaultOff</title>
<polygon fill="none" stroke="black" points="98.88,-694.77 34.12,-694.77 34.12,-655.27 98.88,-655.27 98.88,-694.77"/>
<text text-anchor="middle" x="66.5" y="-677.47" font-family="Arial" font-size="14.00">FaultOff</text>
<text text-anchor="middle" x="66.5" y="-661.72" font-family="Arial" font-size="14.00">[_] / _</text>
</g>
<!-- FaultOn -->
<g id="node15" class="node">
<title>FaultOn</title>
<polygon fill="none" stroke="black" points="98.88,-752.77 34.12,-752.77 34.12,-713.27 98.88,-713.27 98.88,-752.77"/>
<text text-anchor="middle" x="66.5" y="-735.47" font-family="Arial" font-size="14.00">FaultOn</text>
<text text-anchor="middle" x="66.5" y="-719.72" font-family="Arial" font-size="14.00">[_] / _</text>
</g>
<!-- MaintenanceButton -->
<g id="node16" class="node">
<title>MaintenanceButton</title>
<polygon fill="none" stroke="black" points="133,-810.77 0,-810.77 0,-771.27 133,-771.27 133,-810.77"/>
<text text-anchor="middle" x="66.5" y="-793.47" font-family="Arial" font-size="14.00">MaintenanceButton</text>
<text text-anchor="middle" x="66.5" y="-777.72" font-family="Arial" font-size="14.00">[_] / _</text>
</g>
<!-- RunButton -->
<g id="node17" class="node">
<title>RunButton</title>
<polygon fill="none" stroke="black" points="106.38,-868.77 26.62,-868.77 26.62,-829.27 106.38,-829.27 106.38,-868.77"/>
<text text-anchor="middle" x="66.5" y="-851.47" font-family="Arial" font-size="14.00">RunButton</text>
<text text-anchor="middle" x="66.5" y="-835.72" font-family="Arial" font-size="14.00">[_] / _</text>
</g>
<!-- SetCleaning -->
<g id="node18" class="node">
<title>SetCleaning</title>
<polygon fill="none" stroke="black" points="111.25,-926.77 21.75,-926.77 21.75,-887.27 111.25,-887.27 111.25,-926.77"/>
<text text-anchor="middle" x="66.5" y="-909.47" font-family="Arial" font-size="14.00">SetCleaning</text>
<text text-anchor="middle" x="66.5" y="-893.72" font-family="Arial" font-size="14.00">[_] / _</text>
</g>
<!-- SetEmergency -->
<g id="node19" class="node">
<title>SetEmergency</title>
<polygon fill="none" stroke="black" points="119.12,-984.77 13.88,-984.77 13.88,-945.27 119.12,-945.27 119.12,-984.77"/>
<text text-anchor="middle" x="66.5" y="-967.47" font-family="Arial" font-size="14.00">SetEmergency</text>
<text text-anchor="middle" x="66.5" y="-951.72" font-family="Arial" font-size="14.00">[_] / _</text>
</g>
<!-- SetFault -->
<g id="node20" class="node">
<title>SetFault</title>
<polygon fill="none" stroke="black" points="99.62,-1042.77 33.38,-1042.77 33.38,-1003.27 99.62,-1003.27 99.62,-1042.77"/>
<text text-anchor="middle" x="66.5" y="-1025.47" font-family="Arial" font-size="14.00">SetFault</text>
<text text-anchor="middle" x="66.5" y="-1009.72" font-family="Arial" font-size="14.00">[_] / _</text>
</g>
<!-- SetMaintenance -->
<g id="node21" class="node">
<title>SetMaintenance</title>
<polygon fill="none" stroke="black" points="123.62,-1100.77 9.38,-1100.77 9.38,-1061.27 123.62,-1061.27 123.62,-1100.77"/>
<text text-anchor="middle" x="66.5" y="-1083.47" font-family="Arial" font-size="14.00">SetMaintenance</text>
<text text-anchor="middle" x="66.5" y="-1067.72" font-family="Arial" font-size="14.00">[_] / _</text>
</g>
<!-- SetStarting -->
<g id="node22" class="node">
<title>SetStarting</title>
<polygon fill="none" stroke="black" points="107.88,-1158.77 25.12,-1158.77 25.12,-1119.27 107.88,-1119.27 107.88,-1158.77"/>
<text text-anchor="middle" x="66.5" y="-1141.47" font-family="Arial" font-size="14.00">SetStarting</text>
<text text-anchor="middle" x="66.5" y="-1125.72" font-family="Arial" font-size="14.00">[_] / _</text>
</g>
<!-- SetStopped -->
<g id="node23" class="node">
<title>SetStopped</title>
<polygon fill="none" stroke="black" points="109.75,-1216.77 23.25,-1216.77 23.25,-1177.27 109.75,-1177.27 109.75,-1216.77"/>
<text text-anchor="middle" x="66.5" y="-1199.47" font-family="Arial" font-size="14.00">SetStopped</text>
<text text-anchor="middle" x="66.5" y="-1183.72" font-family="Arial" font-size="14.00">[_] / _</text>
</g>
<!-- StartingFinished -->
<g id="node24" class="node">
<title>StartingFinished</title>
<polygon fill="none" stroke="black" points="123.25,-1274.77 9.75,-1274.77 9.75,-1235.27 123.25,-1235.27 123.25,-1274.77"/>
<text text-anchor="middle" x="66.5" y="-1257.47" font-family="Arial" font-size="14.00">StartingFinished</text>
<text text-anchor="middle" x="66.5" y="-1241.72" font-family="Arial" font-size="14.00">[_] / _</text>
</g>
<!-- StartingTimeout -->
<g id="node25" class="node">
<title>StartingTimeout</title>
<polygon fill="none" stroke="black" points="122.5,-1332.77 10.5,-1332.77 10.5,-1293.27 122.5,-1293.27 122.5,-1332.77"/>
<text text-anchor="middle" x="66.5" y="-1315.47" font-family="Arial" font-size="14.00">StartingTimeout</text>
<text text-anchor="middle" x="66.5" y="-1299.72" font-family="Arial" font-size="14.00">[_] / _</text>
</g>
<!-- StoppingFinished -->
<g id="node26" class="node">
<title>StoppingFinished</title>
<polygon fill="none" stroke="black" points="126.62,-1390.77 6.38,-1390.77 6.38,-1351.27 126.62,-1351.27 126.62,-1390.77"/>
<text text-anchor="middle" x="66.5" y="-1373.47" font-family="Arial" font-size="14.00">StoppingFinished</text>
<text text-anchor="middle" x="66.5" y="-1357.72" font-family="Arial" font-size="14.00">[_] / _</text>
</g>
<!-- StoppingTimeout -->
<g id="node27" class="node">
<title>StoppingTimeout</title>
<polygon fill="none" stroke="black" points="125.88,-1448.77 7.12,-1448.77 7.12,-1409.27 125.88,-1409.27 125.88,-1448.77"/>
<text text-anchor="middle" x="66.5" y="-1431.47" font-family="Arial" font-size="14.00">StoppingTimeout</text>
<text text-anchor="middle" x="66.5" y="-1415.72" font-family="Arial" font-size="14.00">[_] / _</text>
</g>
</g>
</svg>
