<?xml version="1.0" encoding="UTF-8" standalone="no"?>
<!DOCTYPE svg PUBLIC "-//W3C//DTD SVG 1.1//EN"
 "http://www.w3.org/Graphics/SVG/1.1/DTD/svg11.dtd">
<!-- Generated by graphviz version 12.2.0 (0)
 -->
<!-- Title: G Pages: 1 -->
<svg width="1501pt" height="1528pt"
 viewBox="0.00 0.00 1500.50 1528.21" xmlns="http://www.w3.org/2000/svg" xmlns:xlink="http://www.w3.org/1999/xlink">
<g id="graph0" class="graph" transform="scale(1 1) rotate(0) translate(4 1524.21)">
<title>G</title>
<polygon fill="white" stroke="none" points="-4,4 -4,-1524.21 1496.5,-1524.21 1496.5,4 -4,4"/>
<!-- s -->
<g id="node1" class="node">
<title>s</title>
<ellipse fill="black" stroke="black" cx="66.5" cy="-516.46" rx="18" ry="18"/>
<text text-anchor="middle" x="66.5" y="-511.03" font-family="Arial" font-size="14.00">s</text>
</g>
<!-- Init -->
<g id="node2" class="node">
<title>Init</title>
<polygon fill="#ffbb33" stroke="red" points="224,-534.46 170,-534.46 170,-498.46 224,-498.46 224,-534.46"/>
<text text-anchor="middle" x="197" y="-511.03" font-family="Arial" font-size="14.00">Init</text>
</g>
<!-- s&#45;&gt;Init -->
<g id="edge1" class="edge">
<title>s&#45;&gt;Init</title>
<path fill="none" stroke="black" d="M84.83,-516.46C103.55,-516.46 133.96,-516.46 158.24,-516.46"/>
<polygon fill="black" stroke="black" points="158.08,-519.96 168.08,-516.46 158.08,-512.96 158.08,-519.96"/>
</g>
<!-- Emergency -->
<g id="node4" class="node">
<title>Emergency</title>
<polygon fill="#ffbb33" stroke="red" points="434.25,-495.46 349.25,-495.46 349.25,-459.46 434.25,-459.46 434.25,-495.46"/>
<text text-anchor="middle" x="391.75" y="-472.03" font-family="Arial" font-size="14.00">Emergency</text>
</g>
<!-- Init&#45;&gt;Emergency -->
<g id="edge13" class="edge">
<title>Init&#45;&gt;Emergency</title>
<path fill="none" stroke="blue" d="M213.68,-498.22C221.36,-490.66 231.26,-482.74 242,-478.71 272.31,-467.34 308.61,-466.81 337.76,-469.22"/>
<polygon fill="blue" stroke="blue" points="337.16,-472.68 347.45,-470.17 337.84,-465.71 337.16,-472.68"/>
<text text-anchor="middle" x="286.62" y="-481.16" font-family="Arial" font-size="14.00">EmergencyOn</text>
</g>
<!-- Init&#45;&gt;Emergency -->
<g id="edge14" class="edge">
<title>Init&#45;&gt;Emergency</title>
<path fill="none" stroke="blue" d="M224.47,-513C251.48,-509.26 294.53,-502.71 331.25,-494.46 333.41,-493.97 335.61,-493.46 337.83,-492.91"/>
<polygon fill="blue" stroke="blue" points="338.69,-496.31 347.51,-490.42 336.95,-489.53 338.69,-496.31"/>
<text text-anchor="middle" x="286.62" y="-512.84" font-family="Arial" font-size="14.00">SetEmergency</text>
</g>
<!-- Stopped -->
<g id="node9" class="node">
<title>Stopped</title>
<polygon fill="#ffbb33" stroke="red" points="851.75,-602.46 785.5,-602.46 785.5,-566.46 851.75,-566.46 851.75,-602.46"/>
<text text-anchor="middle" x="818.62" y="-579.03" font-family="Arial" font-size="14.00">Stopped</text>
</g>
<!-- Init&#45;&gt;Stopped -->
<g id="edge15" class="edge">
<title>Init&#45;&gt;Stopped</title>
<path fill="none" stroke="blue" d="M203.23,-534.85C222.86,-599.95 298.95,-819.87 452.25,-902.46 517.56,-937.65 716.56,-907.45 756,-870.46 793.14,-835.62 809.91,-679.89 815.43,-614.03"/>
<polygon fill="blue" stroke="blue" points="818.9,-614.58 816.21,-604.33 811.92,-614.02 818.9,-614.58"/>
<text text-anchor="middle" x="496.88" y="-920.51" font-family="Arial" font-size="14.00">SetStopped</text>
</g>
<!-- Cleaning -->
<g id="node3" class="node">
<title>Cleaning</title>
<polygon fill="#ffbb33" stroke="red" points="1097.88,-513.46 1028.62,-513.46 1028.62,-477.46 1097.88,-477.46 1097.88,-513.46"/>
<text text-anchor="middle" x="1063.25" y="-490.03" font-family="Arial" font-size="14.00">Cleaning</text>
</g>
<!-- Cleaning&#45;&gt;Emergency -->
<g id="edge2" class="edge">
<title>Cleaning&#45;&gt;Emergency</title>
<path fill="none" stroke="blue" d="M1053.2,-477.12C1042.83,-458.42 1023.9,-430.49 998.25,-418.46 888.25,-366.85 569.44,-415.37 452.25,-447.46 446.03,-449.16 439.7,-451.55 433.6,-454.23"/>
<polygon fill="blue" stroke="blue" points="432.51,-450.87 424.98,-458.32 435.52,-457.2 432.51,-450.87"/>
<text text-anchor="middle" x="711.38" y="-410.37" font-family="Arial" font-size="14.00">EmergencyOn</text>
</g>
<!-- Cleaning&#45;&gt;Emergency -->
<g id="edge3" class="edge">
<title>Cleaning&#45;&gt;Emergency</title>
<path fill="none" stroke="blue" d="M1056.69,-477.28C1048.3,-453.37 1029.93,-412.17 998.25,-393.46 990.92,-389.13 757.52,-370.55 666.75,-379.71 569.95,-389.48 539.04,-379.47 452.25,-423.46 438.83,-430.26 426.17,-440.91 415.99,-450.96"/>
<polygon fill="blue" stroke="blue" points="413.55,-448.45 409.13,-458.07 418.59,-453.31 413.55,-448.45"/>
<text text-anchor="middle" x="711.38" y="-382.16" font-family="Arial" font-size="14.00">SetEmergency</text>
</g>
<!-- Cleaning&#45;&gt;Stopped -->
<g id="edge4" class="edge">
<title>Cleaning&#45;&gt;Stopped</title>
<path fill="none" stroke="blue" d="M1028.29,-496.62C983.15,-498.65 906.15,-503.91 881.25,-516.71 863.39,-525.89 848.15,-542.51 837.29,-556.99"/>
<polygon fill="blue" stroke="blue" points="834.63,-554.69 831.68,-564.86 840.34,-558.75 834.63,-554.69"/>
<text text-anchor="middle" x="939.75" y="-519.16" font-family="Arial" font-size="14.00">CleaningButton</text>
</g>
<!-- Cleaning&#45;&gt;Stopped -->
<g id="edge5" class="edge">
<title>Cleaning&#45;&gt;Stopped</title>
<path fill="none" stroke="blue" d="M1028.4,-481.27C990.05,-467.58 926.94,-452.45 881.25,-478.71 852.81,-495.05 836.26,-530.13 827.61,-555.41"/>
<polygon fill="blue" stroke="blue" points="824.32,-554.21 824.63,-564.8 830.99,-556.32 824.32,-554.21"/>
<text text-anchor="middle" x="939.75" y="-481.16" font-family="Arial" font-size="14.00">SetStopped</text>
</g>
<!-- Emergency&#45;&gt;Emergency -->
<g id="edge6" class="edge">
<title>Emergency&#45;&gt;Emergency</title>
<path fill="none" stroke="blue" d="M382.24,-495.61C380.78,-505 383.95,-513.46 391.75,-513.46 396.14,-513.46 399.06,-510.78 400.52,-506.77"/>
<polygon fill="blue" stroke="blue" points="403.99,-507.33 401.16,-497.12 397,-506.87 403.99,-507.33"/>
<text text-anchor="middle" x="391.75" y="-515.91" font-family="Arial" font-size="14.00">EmergencyOn</text>
</g>
<!-- Emergency&#45;&gt;Emergency -->
<g id="edge7" class="edge">
<title>Emergency&#45;&gt;Emergency</title>
<path fill="none" stroke="blue" d="M375.81,-495.72C367.55,-512.86 372.86,-531.46 391.75,-531.46 406.66,-531.46 413.11,-519.88 411.11,-506.57"/>
<polygon fill="blue" stroke="blue" points="414.48,-505.65 408.14,-497.16 407.81,-507.75 414.48,-505.65"/>
<text text-anchor="middle" x="391.75" y="-533.91" font-family="Arial" font-size="14.00">SetEmergency</text>
</g>
<!-- Fault -->
<g id="node5" class="node">
<title>Fault</title>
<polygon fill="#ffbb33" stroke="red" points="631.12,-494.46 577.12,-494.46 577.12,-458.46 631.12,-458.46 631.12,-494.46"/>
<text text-anchor="middle" x="604.12" y="-471.03" font-family="Arial" font-size="14.00">Fault</text>
</g>
<!-- Emergency&#45;&gt;Fault -->
<g id="edge8" class="edge">
<title>Emergency&#45;&gt;Fault</title>
<path fill="none" stroke="blue" d="M434.56,-477.26C472.73,-477.08 528.65,-476.81 565.46,-476.64"/>
<polygon fill="blue" stroke="blue" points="565.2,-480.14 575.18,-476.59 565.16,-473.14 565.2,-480.14"/>
<text text-anchor="middle" x="496.88" y="-479.61" font-family="Arial" font-size="14.00">EmergencyOff</text>
</g>
<!-- Emergency&#45;&gt;Stopped -->
<g id="edge9" class="edge">
<title>Emergency&#45;&gt;Stopped</title>
<path fill="none" stroke="blue" d="M398.81,-495.87C407.11,-517.89 424.25,-553.94 452.25,-571.46 552.88,-634.4 701.45,-612.33 774.23,-595.85"/>
<polygon fill="blue" stroke="blue" points="774.83,-599.31 783.77,-593.62 773.23,-592.49 774.83,-599.31"/>
<text text-anchor="middle" x="604.12" y="-615.89" font-family="Arial" font-size="14.00">EmergencyOff</text>
</g>
<!-- Fault&#45;&gt;Emergency -->
<g id="edge10" class="edge">
<title>Fault&#45;&gt;Emergency</title>
<path fill="none" stroke="blue" d="M576.87,-466.06C566.09,-462.32 553.38,-458.57 541.5,-456.71 502.31,-450.58 491.36,-450.09 452.25,-456.71 450.07,-457.08 447.85,-457.52 445.63,-458.02"/>
<polygon fill="blue" stroke="blue" points="444.79,-454.62 436.01,-460.55 446.57,-461.39 444.79,-454.62"/>
<text text-anchor="middle" x="496.88" y="-459.16" font-family="Arial" font-size="14.00">EmergencyOn</text>
</g>
<!-- Fault&#45;&gt;Emergency -->
<g id="edge11" class="edge">
<title>Fault&#45;&gt;Emergency</title>
<path fill="none" stroke="blue" d="M576.8,-485.94C566.01,-489.35 553.31,-492.77 541.5,-494.46 502.23,-500.08 491.53,-499.96 452.25,-494.46 450.1,-494.16 447.91,-493.8 445.71,-493.39"/>
<polygon fill="blue" stroke="blue" points="446.69,-490.02 436.17,-491.33 445.21,-496.86 446.69,-490.02"/>
<text text-anchor="middle" x="496.88" y="-501.08" font-family="Arial" font-size="14.00">SetEmergency</text>
</g>
<!-- Fault&#45;&gt;Stopped -->
<g id="edge12" class="edge">
<title>Fault&#45;&gt;Stopped</title>
<path fill="none" stroke="blue" d="M631.45,-469.01C663.28,-461.61 717.39,-454.27 756,-476.71 785.05,-493.59 801.58,-529.88 810.05,-555.68"/>
<polygon fill="blue" stroke="blue" points="806.6,-556.35 812.86,-564.89 813.3,-554.31 806.6,-556.35"/>
<text text-anchor="middle" x="711.38" y="-479.16" font-family="Arial" font-size="14.00">FaultOff</text>
</g>
<!-- Maintenance -->
<g id="node6" class="node">
<title>Maintenance</title>
<polygon fill="#ffbb33" stroke="red" points="1110.25,-311.46 1016.25,-311.46 1016.25,-275.46 1110.25,-275.46 1110.25,-311.46"/>
<text text-anchor="middle" x="1063.25" y="-288.03" font-family="Arial" font-size="14.00">Maintenance</text>
</g>
<!-- Maintenance&#45;&gt;Emergency -->
<g id="edge16" class="edge">
<title>Maintenance&#45;&gt;Emergency</title>
<path fill="none" stroke="blue" d="M1054.01,-275.27C1043.99,-255.64 1025.03,-225.43 998.25,-212.46 951.45,-189.79 932.28,-202.45 881.25,-212.46 679.18,-252.09 611.46,-256.86 452.25,-387.46 431.97,-404.1 416.07,-429.47 405.83,-449.04"/>
<polygon fill="blue" stroke="blue" points="402.75,-447.36 401.41,-457.87 409.01,-450.49 402.75,-447.36"/>
<text text-anchor="middle" x="711.38" y="-262.35" font-family="Arial" font-size="14.00">EmergencyOn</text>
</g>
<!-- Maintenance&#45;&gt;Emergency -->
<g id="edge17" class="edge">
<title>Maintenance&#45;&gt;Emergency</title>
<path fill="none" stroke="blue" d="M1056.48,-275.32C1047.95,-251.97 1029.52,-212.39 998.25,-195.46 868.39,-125.17 809.85,-181.27 666.75,-217.71 564.68,-243.7 522,-239.54 452.25,-318.46 419.25,-355.8 403.89,-413.16 397.26,-447.82"/>
<polygon fill="blue" stroke="blue" points="393.83,-447.12 395.53,-457.57 400.72,-448.34 393.83,-447.12"/>
<text text-anchor="middle" x="711.38" y="-220.16" font-family="Arial" font-size="14.00">SetEmergency</text>
</g>
<!-- Maintenance&#45;&gt;Stopped -->
<g id="edge18" class="edge">
<title>Maintenance&#45;&gt;Stopped</title>
<path fill="none" stroke="blue" d="M1027.81,-311.93C978.23,-338.78 891.56,-386.79 881.25,-399.71 864.74,-420.39 871.52,-431.32 863.25,-456.46 852,-490.65 838.58,-529.8 829.62,-555.7"/>
<polygon fill="blue" stroke="blue" points="826.42,-554.25 826.46,-564.84 833.04,-556.54 826.42,-554.25"/>
<text text-anchor="middle" x="939.75" y="-402.16" font-family="Arial" font-size="14.00">MaintenanceButton</text>
</g>
<!-- Maintenance&#45;&gt;Stopped -->
<g id="edge19" class="edge">
<title>Maintenance&#45;&gt;Stopped</title>
<path fill="none" stroke="blue" d="M1016.14,-291C968.92,-289.55 899.87,-290.77 881.25,-308.71 857.43,-331.66 870.62,-424.22 863.25,-456.46 855.27,-491.35 841.33,-530.07 831.35,-555.69"/>
<polygon fill="blue" stroke="blue" points="828.19,-554.16 827.77,-564.75 834.7,-556.73 828.19,-554.16"/>
<text text-anchor="middle" x="939.75" y="-311.16" font-family="Arial" font-size="14.00">SetStopped</text>
</g>
<!-- Running -->
<g id="node7" class="node">
<title>Running</title>
<polygon fill="#ffbb33" stroke="red" points="1316.75,-282.46 1250.5,-282.46 1250.5,-246.46 1316.75,-246.46 1316.75,-282.46"/>
<text text-anchor="middle" x="1283.62" y="-259.03" font-family="Arial" font-size="14.00">Running</text>
</g>
<!-- Running&#45;&gt;Emergency -->
<g id="edge20" class="edge">
<title>Running&#45;&gt;Emergency</title>
<path fill="none" stroke="blue" d="M1278.74,-246.33C1272.78,-222.69 1259.13,-181.53 1232.5,-157.46 1173.71,-104.32 1143.49,-98.46 1064.25,-98.46 603.12,-98.46 603.12,-98.46 603.12,-98.46 443.56,-98.46 404,-358.44 395.12,-447.75"/>
<polygon fill="blue" stroke="blue" points="391.63,-447.39 394.2,-457.67 398.6,-448.04 391.63,-447.39"/>
<text text-anchor="middle" x="818.62" y="-100.91" font-family="Arial" font-size="14.00">EmergencyOn</text>
</g>
<!-- Running&#45;&gt;Emergency -->
<g id="edge21" class="edge">
<title>Running&#45;&gt;Emergency</title>
<path fill="none" stroke="blue" d="M1282.43,-246.21C1281.06,-212.34 1273.24,-139.46 1232.5,-98.46 1177.34,-42.94 1142.52,-46.46 1064.25,-46.46 603.12,-46.46 603.12,-46.46 603.12,-46.46 530.46,-46.46 497.25,-52.4 452.25,-109.46 410.79,-162.04 397.48,-370.06 393.9,-447.88"/>
<polygon fill="blue" stroke="blue" points="390.41,-447.55 393.47,-457.69 397.4,-447.85 390.41,-447.55"/>
<text text-anchor="middle" x="818.62" y="-48.91" font-family="Arial" font-size="14.00">SetEmergency</text>
</g>
<!-- Running&#45;&gt;Fault -->
<g id="edge22" class="edge">
<title>Running&#45;&gt;Fault</title>
<path fill="none" stroke="blue" d="M1250.21,-250.48C1178.57,-221.89 1003.45,-164.83 881.25,-231.71 790.65,-281.3 837.73,-364.31 756,-427.46 753.66,-429.27 686.34,-450.77 642.42,-464.69"/>
<polygon fill="blue" stroke="blue" points="641.46,-461.32 632.99,-467.67 643.58,-467.99 641.46,-461.32"/>
<text text-anchor="middle" x="939.75" y="-234.16" font-family="Arial" font-size="14.00">FaultOn</text>
</g>
<!-- Running&#45;&gt;Fault -->
<g id="edge23" class="edge">
<title>Running&#45;&gt;Fault</title>
<path fill="none" stroke="blue" d="M1270.14,-246.18C1261.02,-234.12 1247.64,-218.88 1232.5,-209.46 1140.48,-152.2 1105.56,-156.92 998.25,-141.71 924.62,-131.28 719.33,-134.87 666.75,-187.46 630.38,-223.83 613.18,-380.53 607.43,-446.75"/>
<polygon fill="blue" stroke="blue" points="603.96,-446.24 606.61,-456.5 610.93,-446.83 603.96,-446.24"/>
<text text-anchor="middle" x="939.75" y="-144.16" font-family="Arial" font-size="14.00">SetFault</text>
</g>
<!-- Stopping -->
<g id="node10" class="node">
<title>Stopping</title>
<polygon fill="#ffbb33" stroke="red" points="1492.5,-776.46 1423.25,-776.46 1423.25,-740.46 1492.5,-740.46 1492.5,-776.46"/>
<text text-anchor="middle" x="1457.88" y="-753.03" font-family="Arial" font-size="14.00">Stopping</text>
</g>
<!-- Running&#45;&gt;Stopping -->
<g id="edge24" class="edge">
<title>Running&#45;&gt;Stopping</title>
<path fill="none" stroke="blue" d="M1299.39,-282.96C1325.23,-316.34 1378.45,-389.82 1405.25,-460.71 1440.69,-554.47 1451.99,-674.12 1455.44,-728.79"/>
<polygon fill="blue" stroke="blue" points="1451.93,-728.75 1456,-738.53 1458.92,-728.35 1451.93,-728.75"/>
<text text-anchor="middle" x="1370" y="-463.16" font-family="Arial" font-size="14.00">RunButton</text>
</g>
<!-- Running&#45;&gt;Stopping -->
<g id="edge25" class="edge">
<title>Running&#45;&gt;Stopping</title>
<path fill="none" stroke="blue" d="M1287.85,-282.91C1294.6,-320.1 1311.52,-406.46 1334.75,-476.46 1366.45,-571.99 1417.75,-679.87 1442.55,-730.01"/>
<polygon fill="blue" stroke="blue" points="1439.3,-731.34 1446.89,-738.74 1445.57,-728.23 1439.3,-731.34"/>
<text text-anchor="middle" x="1370" y="-648.31" font-family="Arial" font-size="14.00">SetStopped</text>
</g>
<!-- Starting -->
<g id="node8" class="node">
<title>Starting</title>
<polygon fill="#ffbb33" stroke="red" points="1094.5,-709.46 1032,-709.46 1032,-673.46 1094.5,-673.46 1094.5,-709.46"/>
<text text-anchor="middle" x="1063.25" y="-686.03" font-family="Arial" font-size="14.00">Starting</text>
</g>
<!-- Starting&#45;&gt;Emergency -->
<g id="edge26" class="edge">
<title>Starting&#45;&gt;Emergency</title>
<path fill="none" stroke="blue" d="M1056.83,-709.96C1048.6,-734.27 1030.41,-776.05 998.25,-794.46 892.94,-854.73 544.53,-873.24 452.25,-794.46 408.87,-757.43 396.85,-578.6 393.75,-507.09"/>
<polygon fill="blue" stroke="blue" points="397.26,-507.17 393.36,-497.32 390.27,-507.45 397.26,-507.17"/>
<text text-anchor="middle" x="711.38" y="-849.28" font-family="Arial" font-size="14.00">EmergencyOn</text>
</g>
<!-- Starting&#45;&gt;Emergency -->
<g id="edge27" class="edge">
<title>Starting&#45;&gt;Emergency</title>
<path fill="none" stroke="blue" d="M1052.1,-709.94C1041.32,-727.43 1022.51,-752.57 998.25,-763.46 950.81,-784.76 932.66,-771.25 881.25,-763.46 683.88,-733.57 598.27,-766.57 452.25,-630.46 417,-597.61 402.36,-541.41 396.48,-507.04"/>
<polygon fill="blue" stroke="blue" points="399.97,-506.71 394.98,-497.36 393.05,-507.78 399.97,-506.71"/>
<text text-anchor="middle" x="711.38" y="-751.81" font-family="Arial" font-size="14.00">SetEmergency</text>
</g>
<!-- Starting&#45;&gt;Running -->
<g id="edge28" class="edge">
<title>Starting&#45;&gt;Running</title>
<path fill="none" stroke="blue" d="M1069.34,-673.23C1077.95,-642.29 1095.86,-577.47 1110.25,-522.46 1118.57,-490.65 1113.39,-480.04 1128.25,-450.71 1160.88,-386.3 1219.31,-324.4 1254.17,-290.69"/>
<polygon fill="blue" stroke="blue" points="1256.59,-293.22 1261.4,-283.78 1251.75,-288.16 1256.59,-293.22"/>
<text text-anchor="middle" x="1180.38" y="-453.16" font-family="Arial" font-size="14.00">StartingFinished</text>
</g>
<!-- Starting&#45;&gt;Running -->
<g id="edge29" class="edge">
<title>Starting&#45;&gt;Running</title>
<path fill="none" stroke="blue" d="M1082.21,-673.02C1116.63,-636.65 1192.07,-551.74 1232.5,-466.46 1259.84,-408.78 1273.32,-334.52 1279.04,-294.03"/>
<polygon fill="blue" stroke="blue" points="1282.48,-294.71 1280.35,-284.34 1275.54,-293.78 1282.48,-294.71"/>
<text text-anchor="middle" x="1180.38" y="-623.72" font-family="Arial" font-size="14.00">StartingTimeout</text>
</g>
<!-- Starting&#45;&gt;Stopped -->
<g id="edge30" class="edge">
<title>Starting&#45;&gt;Stopped</title>
<path fill="none" stroke="blue" d="M1031.8,-681.94C1021.23,-678.79 1009.27,-675.41 998.25,-672.71 946.76,-660.08 927.67,-675.07 881.25,-649.46 864.66,-640.3 849.89,-625.13 838.98,-611.75"/>
<polygon fill="blue" stroke="blue" points="841.9,-609.8 833,-604.06 836.38,-614.1 841.9,-609.8"/>
<text text-anchor="middle" x="939.75" y="-675.16" font-family="Arial" font-size="14.00">RunButton</text>
</g>
<!-- Starting&#45;&gt;Stopped -->
<g id="edge31" class="edge">
<title>Starting&#45;&gt;Stopped</title>
<path fill="none" stroke="blue" d="M1048.59,-673.24C1036.87,-659 1018.67,-639.96 998.25,-629.71 951.15,-606.06 931.88,-625.08 881.25,-610.46 875.03,-608.66 868.6,-606.42 862.34,-604"/>
<polygon fill="blue" stroke="blue" points="864.03,-600.91 853.45,-600.4 861.4,-607.4 864.03,-600.91"/>
<text text-anchor="middle" x="939.75" y="-632.16" font-family="Arial" font-size="14.00">SetStopped</text>
</g>
<!-- Stopped&#45;&gt;Cleaning -->
<g id="edge32" class="edge">
<title>Stopped&#45;&gt;Cleaning</title>
<path fill="none" stroke="blue" d="M851.94,-589.32C889.33,-593.38 951.72,-595.2 998.25,-571.46 1018.93,-560.91 1035.55,-540.45 1046.67,-523.41"/>
<polygon fill="blue" stroke="blue" points="1049.49,-525.51 1051.77,-515.16 1043.54,-521.82 1049.49,-525.51"/>
<text text-anchor="middle" x="939.75" y="-594.22" font-family="Arial" font-size="14.00">CleaningButton</text>
</g>
<!-- Stopped&#45;&gt;Cleaning -->
<g id="edge33" class="edge">
<title>Stopped&#45;&gt;Cleaning</title>
<path fill="none" stroke="blue" d="M849.46,-566.09C859.29,-560.74 870.46,-555.35 881.25,-551.71 931.18,-534.84 948.63,-550.21 998.25,-532.46 1007.54,-529.13 1017.03,-524.47 1025.75,-519.57"/>
<polygon fill="blue" stroke="blue" points="1027.44,-522.63 1034.28,-514.54 1023.89,-516.6 1027.44,-522.63"/>
<text text-anchor="middle" x="939.75" y="-554.16" font-family="Arial" font-size="14.00">SetCleaning</text>
</g>
<!-- Stopped&#45;&gt;Emergency -->
<g id="edge34" class="edge">
<title>Stopped&#45;&gt;Emergency</title>
<path fill="none" stroke="blue" d="M790.47,-602.89C780.1,-609.11 767.9,-615.47 756,-619.46 672.98,-647.26 646.19,-645.74 559.5,-633.46 510.37,-626.5 490.07,-634.57 452.25,-602.46 422.94,-577.58 407.03,-534.98 399.22,-506.53"/>
<polygon fill="blue" stroke="blue" points="402.68,-505.94 396.81,-497.12 395.9,-507.68 402.68,-505.94"/>
<text text-anchor="middle" x="604.12" y="-644.31" font-family="Arial" font-size="14.00">EmergencyOn</text>
</g>
<!-- Stopped&#45;&gt;Emergency -->
<g id="edge35" class="edge">
<title>Stopped&#45;&gt;Emergency</title>
<path fill="none" stroke="blue" d="M785.07,-583.75C719.32,-581.24 567.14,-569.85 452.25,-518.46 442.76,-514.22 433.19,-508.43 424.57,-502.54"/>
<polygon fill="blue" stroke="blue" points="426.71,-499.76 416.54,-496.8 422.65,-505.46 426.71,-499.76"/>
<text text-anchor="middle" x="604.12" y="-573.25" font-family="Arial" font-size="14.00">SetEmergency</text>
</g>
<!-- Stopped&#45;&gt;Fault -->
<g id="edge36" class="edge">
<title>Stopped&#45;&gt;Fault</title>
<path fill="none" stroke="blue" d="M785.2,-567.34C775.93,-562.85 765.7,-558.28 756,-554.71 717.53,-540.56 702.88,-550.81 666.75,-531.46 652.99,-524.09 639.78,-513.03 629.15,-502.77"/>
<polygon fill="blue" stroke="blue" points="631.82,-500.48 622.28,-495.86 626.85,-505.42 631.82,-500.48"/>
<text text-anchor="middle" x="711.38" y="-557.16" font-family="Arial" font-size="14.00">FaultOn</text>
</g>
<!-- Stopped&#45;&gt;Fault -->
<g id="edge37" class="edge">
<title>Stopped&#45;&gt;Fault</title>
<path fill="none" stroke="blue" d="M807.1,-566.23C796.42,-549.41 778.29,-525.07 756,-511.71 721.2,-490.84 706.23,-501.84 666.75,-492.46 658.86,-490.58 650.42,-488.47 642.41,-486.4"/>
<polygon fill="blue" stroke="blue" points="643.48,-483.07 632.92,-483.93 641.71,-489.84 643.48,-483.07"/>
<text text-anchor="middle" x="711.38" y="-514.16" font-family="Arial" font-size="14.00">SetFault</text>
</g>
<!-- Stopped&#45;&gt;Maintenance -->
<g id="edge38" class="edge">
<title>Stopped&#45;&gt;Maintenance</title>
<path fill="none" stroke="blue" d="M827.36,-566.19C837.38,-541.69 854.58,-496.62 863.25,-456.46 872,-415.92 850.54,-298.58 881.25,-270.71 917.74,-237.59 976.73,-253.13 1017.4,-270.42"/>
<polygon fill="blue" stroke="blue" points="1015.89,-273.58 1026.45,-274.45 1018.74,-267.18 1015.89,-273.58"/>
<text text-anchor="middle" x="939.75" y="-273.16" font-family="Arial" font-size="14.00">MaintenanceButton</text>
</g>
<!-- Stopped&#45;&gt;Maintenance -->
<g id="edge39" class="edge">
<title>Stopped&#45;&gt;Maintenance</title>
<path fill="none" stroke="blue" d="M822.38,-566.44C827.93,-536.5 843.33,-476.66 881.25,-444.71 922.24,-410.17 956.11,-448.59 998.25,-415.46 1028.16,-391.94 1045.61,-350.54 1054.54,-322.56"/>
<polygon fill="blue" stroke="blue" points="1057.8,-323.88 1057.32,-313.3 1051.09,-321.87 1057.8,-323.88"/>
<text text-anchor="middle" x="939.75" y="-447.16" font-family="Arial" font-size="14.00">SetMaintenance</text>
</g>
<!-- Stopped&#45;&gt;Starting -->
<g id="edge40" class="edge">
<title>Stopped&#45;&gt;Starting</title>
<path fill="none" stroke="blue" d="M821.31,-602.95C825.32,-634.82 838.57,-699.38 881.25,-727.46 924.69,-756.04 947.95,-740.64 998.25,-727.46 1008.02,-724.9 1017.87,-720.48 1026.81,-715.59"/>
<polygon fill="blue" stroke="blue" points="1028.29,-718.78 1035.17,-710.72 1024.77,-712.73 1028.29,-718.78"/>
<text text-anchor="middle" x="939.75" y="-746.07" font-family="Arial" font-size="14.00">RunButton</text>
</g>
<!-- Stopped&#45;&gt;Starting -->
<g id="edge41" class="edge">
<title>Stopped&#45;&gt;Starting</title>
<path fill="none" stroke="blue" d="M824.43,-602.73C831.97,-627.23 849.13,-669.8 881.25,-688.46 923.79,-713.17 981.99,-708.78 1020.79,-701.64"/>
<polygon fill="blue" stroke="blue" points="1021.07,-705.15 1030.19,-699.77 1019.7,-698.29 1021.07,-705.15"/>
<text text-anchor="middle" x="939.75" y="-709.67" font-family="Arial" font-size="14.00">SetStarting</text>
</g>
<!-- Stopping&#45;&gt;Emergency -->
<g id="edge42" class="edge">
<title>Stopping&#45;&gt;Emergency</title>
<path fill="none" stroke="blue" d="M1456.75,-740.1C1455.47,-624.34 1441.34,-0.46 1284.62,-0.46 603.12,-0.46 603.12,-0.46 603.12,-0.46 533.02,-0.46 497.73,6.89 452.25,-46.46 400.58,-107.06 393.66,-360.23 392.83,-447.63"/>
<polygon fill="blue" stroke="blue" points="389.33,-447.52 392.76,-457.54 396.33,-447.57 389.33,-447.52"/>
<text text-anchor="middle" x="939.75" y="-2.91" font-family="Arial" font-size="14.00">EmergencyOn</text>
</g>
<!-- Stopping&#45;&gt;Emergency -->
<g id="edge43" class="edge">
<title>Stopping&#45;&gt;Emergency</title>
<path fill="none" stroke="blue" d="M1444.83,-776.81C1419.7,-812.64 1357.87,-888.46 1284.62,-888.46 603.12,-888.46 603.12,-888.46 603.12,-888.46 530.63,-888.46 497.55,-883.06 452.25,-826.46 412.78,-777.14 398.33,-582.01 394.17,-507.03"/>
<polygon fill="blue" stroke="blue" points="397.68,-506.98 393.65,-497.18 390.68,-507.35 397.68,-506.98"/>
<text text-anchor="middle" x="939.75" y="-890.91" font-family="Arial" font-size="14.00">SetEmergency</text>
</g>
<!-- Stopping&#45;&gt;Stopped -->
<g id="edge44" class="edge">
<title>Stopping&#45;&gt;Stopped</title>
<path fill="none" stroke="blue" d="M1423.14,-761.02C1306.53,-769.58 925.29,-794.87 881.25,-763.46 833.4,-729.32 822.33,-655.52 820,-614.13"/>
<polygon fill="blue" stroke="blue" points="823.51,-614.26 819.61,-604.41 816.52,-614.54 823.51,-614.26"/>
<text text-anchor="middle" x="1180.38" y="-779.48" font-family="Arial" font-size="14.00">StoppingFinished</text>
</g>
<!-- Stopping&#45;&gt;Stopped -->
<g id="edge45" class="edge">
<title>Stopping&#45;&gt;Stopped</title>
<path fill="none" stroke="blue" d="M1422.77,-773.68C1325.97,-814.3 1045.9,-913.72 881.25,-784.46 829.02,-743.46 819.96,-659.08 819.05,-614.14"/>
<polygon fill="blue" stroke="blue" points="822.55,-614.34 818.98,-604.36 815.55,-614.38 822.55,-614.34"/>
<text text-anchor="middle" x="1180.38" y="-849.93" font-family="Arial" font-size="14.00">StoppingTimeout</text>
</g>
<!-- CleaningButton -->
<g id="node11" class="node">
<title>CleaningButton</title>
<polygon fill="none" stroke="black" points="120.62,-592.21 12.38,-592.21 12.38,-552.71 120.62,-552.71 120.62,-592.21"/>
<text text-anchor="middle" x="66.5" y="-574.91" font-family="Arial" font-size="14.00">CleaningButton</text>
<text text-anchor="middle" x="66.5" y="-559.16" font-family="Arial" font-size="14.00">[_] / _</text>
</g>
<!-- EmergencyOff -->
<g id="node12" class="node">
<title>EmergencyOff</title>
<polygon fill="none" stroke="black" points="118.38,-650.21 14.62,-650.21 14.62,-610.71 118.38,-610.71 118.38,-650.21"/>
<text text-anchor="middle" x="66.5" y="-632.91" font-family="Arial" font-size="14.00">EmergencyOff</text>
<text text-anchor="middle" x="66.5" y="-617.16" font-family="Arial" font-size="14.00">[is_fault()] / _</text>
</g>
<!-- EmergencyOn -->
<g id="node13" class="node">
<title>EmergencyOn</title>
<polygon fill="none" stroke="black" points="118.38,-708.21 14.62,-708.21 14.62,-668.71 118.38,-668.71 118.38,-708.21"/>
<text text-anchor="middle" x="66.5" y="-690.91" font-family="Arial" font-size="14.00">EmergencyOn</text>
<text text-anchor="middle" x="66.5" y="-675.16" font-family="Arial" font-size="14.00">[_] / _</text>
</g>
<!-- FaultOff -->
<g id="node14" class="node">
<title>FaultOff</title>
<polygon fill="none" stroke="black" points="98.88,-766.21 34.12,-766.21 34.12,-726.71 98.88,-726.71 98.88,-766.21"/>
<text text-anchor="middle" x="66.5" y="-748.91" font-family="Arial" font-size="14.00">FaultOff</text>
<text text-anchor="middle" x="66.5" y="-733.16" font-family="Arial" font-size="14.00">[_] / _</text>
</g>
<!-- FaultOn -->
<g id="node15" class="node">
<title>FaultOn</title>
<polygon fill="none" stroke="black" points="98.88,-824.21 34.12,-824.21 34.12,-784.71 98.88,-784.71 98.88,-824.21"/>
<text text-anchor="middle" x="66.5" y="-806.91" font-family="Arial" font-size="14.00">FaultOn</text>
<text text-anchor="middle" x="66.5" y="-791.16" font-family="Arial" font-size="14.00">[_] / _</text>
</g>
<!-- MaintenanceButton -->
<g id="node16" class="node">
<title>MaintenanceButton</title>
<polygon fill="none" stroke="black" points="133,-882.21 0,-882.21 0,-842.71 133,-842.71 133,-882.21"/>
<text text-anchor="middle" x="66.5" y="-864.91" font-family="Arial" font-size="14.00">MaintenanceButton</text>
<text text-anchor="middle" x="66.5" y="-849.16" font-family="Arial" font-size="14.00">[_] / _</text>
</g>
<!-- RunButton -->
<g id="node17" class="node">
<title>RunButton</title>
<polygon fill="none" stroke="black" points="106.38,-940.21 26.62,-940.21 26.62,-900.71 106.38,-900.71 106.38,-940.21"/>
<text text-anchor="middle" x="66.5" y="-922.91" font-family="Arial" font-size="14.00">RunButton</text>
<text text-anchor="middle" x="66.5" y="-907.16" font-family="Arial" font-size="14.00">[_] / _</text>
</g>
<!-- SetCleaning -->
<g id="node18" class="node">
<title>SetCleaning</title>
<polygon fill="none" stroke="black" points="111.25,-998.21 21.75,-998.21 21.75,-958.71 111.25,-958.71 111.25,-998.21"/>
<text text-anchor="middle" x="66.5" y="-980.91" font-family="Arial" font-size="14.00">SetCleaning</text>
<text text-anchor="middle" x="66.5" y="-965.16" font-family="Arial" font-size="14.00">[_] / _</text>
</g>
<!-- SetEmergency -->
<g id="node19" class="node">
<title>SetEmergency</title>
<polygon fill="none" stroke="black" points="119.12,-1056.21 13.88,-1056.21 13.88,-1016.71 119.12,-1016.71 119.12,-1056.21"/>
<text text-anchor="middle" x="66.5" y="-1038.91" font-family="Arial" font-size="14.00">SetEmergency</text>
<text text-anchor="middle" x="66.5" y="-1023.16" font-family="Arial" font-size="14.00">[_] / _</text>
</g>
<!-- SetFault -->
<g id="node20" class="node">
<title>SetFault</title>
<polygon fill="none" stroke="black" points="99.62,-1114.21 33.38,-1114.21 33.38,-1074.71 99.62,-1074.71 99.62,-1114.21"/>
<text text-anchor="middle" x="66.5" y="-1096.91" font-family="Arial" font-size="14.00">SetFault</text>
<text text-anchor="middle" x="66.5" y="-1081.16" font-family="Arial" font-size="14.00">[_] / _</text>
</g>
<!-- SetMaintenance -->
<g id="node21" class="node">
<title>SetMaintenance</title>
<polygon fill="none" stroke="black" points="123.62,-1172.21 9.38,-1172.21 9.38,-1132.71 123.62,-1132.71 123.62,-1172.21"/>
<text text-anchor="middle" x="66.5" y="-1154.91" font-family="Arial" font-size="14.00">SetMaintenance</text>
<text text-anchor="middle" x="66.5" y="-1139.16" font-family="Arial" font-size="14.00">[_] / _</text>
</g>
<!-- SetStarting -->
<g id="node22" class="node">
<title>SetStarting</title>
<polygon fill="none" stroke="black" points="107.88,-1230.21 25.12,-1230.21 25.12,-1190.71 107.88,-1190.71 107.88,-1230.21"/>
<text text-anchor="middle" x="66.5" y="-1212.91" font-family="Arial" font-size="14.00">SetStarting</text>
<text text-anchor="middle" x="66.5" y="-1197.16" font-family="Arial" font-size="14.00">[_] / _</text>
</g>
<!-- SetStopped -->
<g id="node23" class="node">
<title>SetStopped</title>
<polygon fill="none" stroke="black" points="109.75,-1288.21 23.25,-1288.21 23.25,-1248.71 109.75,-1248.71 109.75,-1288.21"/>
<text text-anchor="middle" x="66.5" y="-1270.91" font-family="Arial" font-size="14.00">SetStopped</text>
<text text-anchor="middle" x="66.5" y="-1255.16" font-family="Arial" font-size="14.00">[_] / _</text>
</g>
<!-- StartingFinished -->
<g id="node24" class="node">
<title>StartingFinished</title>
<polygon fill="none" stroke="black" points="123.25,-1346.21 9.75,-1346.21 9.75,-1306.71 123.25,-1306.71 123.25,-1346.21"/>
<text text-anchor="middle" x="66.5" y="-1328.91" font-family="Arial" font-size="14.00">StartingFinished</text>
<text text-anchor="middle" x="66.5" y="-1313.16" font-family="Arial" font-size="14.00">[_] / _</text>
</g>
<!-- StartingTimeout -->
<g id="node25" class="node">
<title>StartingTimeout</title>
<polygon fill="none" stroke="black" points="122.5,-1404.21 10.5,-1404.21 10.5,-1364.71 122.5,-1364.71 122.5,-1404.21"/>
<text text-anchor="middle" x="66.5" y="-1386.91" font-family="Arial" font-size="14.00">StartingTimeout</text>
<text text-anchor="middle" x="66.5" y="-1371.16" font-family="Arial" font-size="14.00">[_] / _</text>
</g>
<!-- StoppingFinished -->
<g id="node26" class="node">
<title>StoppingFinished</title>
<polygon fill="none" stroke="black" points="126.62,-1462.21 6.38,-1462.21 6.38,-1422.71 126.62,-1422.71 126.62,-1462.21"/>
<text text-anchor="middle" x="66.5" y="-1444.91" font-family="Arial" font-size="14.00">StoppingFinished</text>
<text text-anchor="middle" x="66.5" y="-1429.16" font-family="Arial" font-size="14.00">[_] / _</text>
</g>
<!-- StoppingTimeout -->
<g id="node27" class="node">
<title>StoppingTimeout</title>
<polygon fill="none" stroke="black" points="125.88,-1520.21 7.12,-1520.21 7.12,-1480.71 125.88,-1480.71 125.88,-1520.21"/>
<text text-anchor="middle" x="66.5" y="-1502.91" font-family="Arial" font-size="14.00">StoppingTimeout</text>
<text text-anchor="middle" x="66.5" y="-1487.16" font-family="Arial" font-size="14.00">[_] / _</text>
</g>
</g>
</svg>
